<?xml version="1.0" encoding="utf-8"?>
<!-- Generator: Adobe Illustrator 16.0.0, SVG Export Plug-In . SVG Version: 6.00 Build 0)  -->
<!DOCTYPE svg PUBLIC "-//W3C//DTD SVG 1.1//EN" "http://www.w3.org/Graphics/SVG/1.1/DTD/svg11.dtd">
<svg version="1.1" id="Layer_1" xmlns="http://www.w3.org/2000/svg" xmlns:xlink="http://www.w3.org/1999/xlink" x="0px" y="0px"
	 width="500px" height="500px" viewBox="0 0 500 500" enable-background="new 0 0 500 500" xml:space="preserve">
<path fill="#E69E35" d="M129.588,42.166C166.445,20.718,206.569,10,250,10c43.43,0,83.552,10.718,120.411,32.166
	c36.83,21.434,65.99,50.581,87.423,87.44c21.433,36.846,32.166,76.97,32.166,120.4c0,43.417-10.733,83.555-32.166,120.4
	c-21.433,36.86-50.593,65.993-87.423,87.426C333.552,479.282,293.43,490,250,490c-43.431,0-83.555-10.718-120.412-32.167
	c-36.844-21.433-65.976-50.565-87.424-87.426C20.717,333.562,10,293.424,10,250.007c0-43.431,10.717-83.555,32.164-120.4
	C63.612,92.747,92.744,63.6,129.588,42.166z"/>
<path fill="#FFFFFF" d="M342,241.407v43.546c0,21.297-4.323,38.836-19.483,53.986C307.36,354.105,292.403,361,271.114,361H213.04
	c-21.275,0-39.329-6.895-54.479-22.061C143.396,323.789,136,306.25,136,284.953v-58.063c0-21.291,7.396-39.51,22.561-54.683
	c15.15-15.159,33.297-22.749,54.572-22.749c47.243,0.779,72.798-0.412,76.813,0.627L253.891,184h-60.197
	c-5.286,0-14.509,3.995-18.323,7.793c-3.798,3.813-10.37,10.449-10.37,15.737v96.783c0,5.295,6.572,13.505,10.37,17.315
	c3.814,3.814,13.037,9.371,18.323,9.371h96.774c5.302,0,10.934-5.557,14.744-9.371c3.793-3.811,6.788-12.021,6.788-17.315V280.12
	L342,241.407z M220.009,296.377l31.176-9.676l79.732-79.75l-22.063-21.874l-78.39,78.391L220.009,296.377z M350.089,187.792
	l21.866-21.875l-4.063-16.458l-17.803-5.416l-21.866,21.874L350.089,187.792z"/>
</svg>
